<?xml version="1.0" encoding="iso-8859-1"?>
<!-- Uploaded to: SVG Repo, www.svgrepo.com, Generator: SVG Repo Mixer Tools -->
<svg fill="#000000" version="1.1" id="Layer_1" xmlns="http://www.w3.org/2000/svg" xmlns:xlink="http://www.w3.org/1999/xlink" 
	 viewBox="0 0 496 496" xml:space="preserve">
<g>
	<g>
		<g>
			<path d="M472,64H24C10.768,64,0,74.768,0,88v320c0,13.232,10.768,24,24,24h448c13.232,0,24-10.768,24-24V88
				C496,74.768,485.232,64,472,64z M480,408c0,4.416-3.592,8-8,8H24c-4.408,0-8-3.584-8-8V144h464V408z M480,128H16V88
				c0-4.416,3.592-8,8-8h448c4.408,0,8,3.584,8,8V128z"/>
			<rect x="32" y="96" width="16" height="16"/>
			<rect x="64" y="96" width="16" height="16"/>
			<rect x="96" y="96" width="16" height="16"/>
			<path d="M192,336h-16V224h16v-16h112v16h48v-48h-48v16H192v-16h-48v48h16v112h-16v48h48V336z M320,192h16v16h-16V192z M160,192
				h16v16h-16V192z M176,368h-16v-16h16V368z"/>
			<path d="M208,240v139.312l40-40l40,40L347.312,320l-40-40l40-40H208z M324.688,320L288,356.688l-40-40l-24,24V256h84.688l-24,24
				L324.688,320z"/>
			<rect x="368" y="272" width="16" height="16"/>
			<rect x="400" y="272" width="16" height="16"/>
			<rect x="432" y="272" width="16" height="16"/>
			<rect x="48" y="272" width="16" height="16"/>
			<rect x="80" y="272" width="16" height="16"/>
			<rect x="112" y="272" width="16" height="16"/>
		</g>
	</g>
</g>
</svg>