<?xml version="1.0" encoding="UTF-8" standalone="no"?>
<!DOCTYPE svg PUBLIC "-//W3C//DTD SVG 1.1//EN"
 "http://www.w3.org/Graphics/SVG/1.1/DTD/svg11.dtd">
<!-- Generated by graphviz version 2.43.0 (0)
 -->
<!-- Title: AppState Pages: 1 -->
<svg width="220pt" height="260pt"
 viewBox="0.00 0.00 220.49 260.00" xmlns="http://www.w3.org/2000/svg" xmlns:xlink="http://www.w3.org/1999/xlink">
<g id="graph0" class="graph" transform="scale(1 1) rotate(0) translate(4 256)">
<title>AppState</title>
<polygon fill="white" stroke="transparent" points="-4,4 -4,-256 216.49,-256 216.49,4 -4,4"/>
<!-- canvas -->
<g id="node1" class="node">
<title>canvas</title>
<ellipse fill="none" stroke="black" cx="100.55" cy="-234" rx="42.49" ry="18"/>
<text text-anchor="middle" x="100.55" y="-230.3" font-family="Times,serif" font-size="14.00">canvas</text>
</g>
<!-- block -->
<g id="node2" class="node">
<title>block</title>
<ellipse fill="none" stroke="black" cx="100.55" cy="-162" rx="35.19" ry="18"/>
<text text-anchor="middle" x="100.55" y="-158.3" font-family="Times,serif" font-size="14.00">block</text>
</g>
<!-- canvas&#45;&gt;block -->
<g id="edge1" class="edge">
<title>canvas&#45;&gt;block</title>
<path fill="none" stroke="black" d="M100.55,-215.7C100.55,-207.98 100.55,-198.71 100.55,-190.11"/>
<polygon fill="black" stroke="black" points="104.05,-190.1 100.55,-180.1 97.05,-190.1 104.05,-190.1"/>
</g>
<!-- slotBig -->
<g id="node3" class="node">
<title>slotBig</title>
<ellipse fill="none" stroke="black" cx="43.55" cy="-90" rx="43.59" ry="18"/>
<text text-anchor="middle" x="43.55" y="-86.3" font-family="Times,serif" font-size="14.00">slotBig</text>
</g>
<!-- block&#45;&gt;slotBig -->
<g id="edge2" class="edge">
<title>block&#45;&gt;slotBig</title>
<path fill="none" stroke="black" d="M87.61,-145.12C80.43,-136.29 71.34,-125.13 63.28,-115.24"/>
<polygon fill="black" stroke="black" points="65.85,-112.85 56.82,-107.31 60.42,-117.27 65.85,-112.85"/>
</g>
<!-- slotSmall -->
<g id="node4" class="node">
<title>slotSmall</title>
<ellipse fill="none" stroke="black" cx="158.55" cy="-90" rx="53.89" ry="18"/>
<text text-anchor="middle" x="158.55" y="-86.3" font-family="Times,serif" font-size="14.00">slotSmall</text>
</g>
<!-- block&#45;&gt;slotSmall -->
<g id="edge3" class="edge">
<title>block&#45;&gt;slotSmall</title>
<path fill="none" stroke="black" d="M113.71,-145.12C120.91,-136.42 130,-125.45 138.11,-115.66"/>
<polygon fill="black" stroke="black" points="140.94,-117.73 144.63,-107.8 135.55,-113.26 140.94,-117.73"/>
</g>
<!-- Title -->
<g id="node5" class="node">
<title>Title</title>
<ellipse fill="none" stroke="black" cx="43.55" cy="-18" rx="31.7" ry="18"/>
<text text-anchor="middle" x="43.55" y="-14.3" font-family="Times,serif" font-size="14.00">Title</text>
</g>
<!-- slotBig&#45;&gt;Title -->
<g id="edge4" class="edge">
<title>slotBig&#45;&gt;Title</title>
<path fill="none" stroke="black" d="M43.55,-71.7C43.55,-63.98 43.55,-54.71 43.55,-46.11"/>
<polygon fill="black" stroke="black" points="47.05,-46.1 43.55,-36.1 40.05,-46.1 47.05,-46.1"/>
</g>
</g>
</svg>
